<mxfile host="app.diagrams.net" modified="2021-06-07T11:41:12.043Z" agent="5.0 (Macintosh; Intel Mac OS X 10_14_6) AppleWebKit/537.36 (KHTML, like Gecko) Chrome/89.0.4389.114 Safari/537.36" etag="mAyJwSKJa31otLbkH5i5" version="14.4.9" type="github">
  <diagram id="WML3rUC7UHVhxpuDxzYY" name="Page-1">
    <mxGraphModel dx="3205" dy="1342" grid="1" gridSize="10" guides="1" tooltips="1" connect="1" arrows="1" fold="1" page="1" pageScale="1" pageWidth="850" pageHeight="1100" math="0" shadow="0">
      <root>
        <mxCell id="0" />
        <mxCell id="1" parent="0" />
        <mxCell id="8GBAKr18c9ORs7-P1AzH-2" value="" style="endArrow=none;dashed=1;html=1;fontFamily=Verdana;" edge="1" parent="1">
          <mxGeometry width="50" height="50" relative="1" as="geometry">
            <mxPoint x="-380" y="170" as="sourcePoint" />
            <mxPoint x="1480" y="170" as="targetPoint" />
          </mxGeometry>
        </mxCell>
        <mxCell id="8GBAKr18c9ORs7-P1AzH-3" value="" style="rounded=0;whiteSpace=wrap;html=1;fontFamily=Verdana;" vertex="1" parent="1">
          <mxGeometry x="377" y="40" width="190" height="120" as="geometry" />
        </mxCell>
        <mxCell id="8GBAKr18c9ORs7-P1AzH-4" value="秒杀详情页面" style="text;html=1;strokeColor=none;fillColor=none;align=center;verticalAlign=middle;whiteSpace=wrap;rounded=0;fontFamily=Verdana;" vertex="1" parent="1">
          <mxGeometry x="427.75" y="10" width="102" height="20" as="geometry" />
        </mxCell>
        <mxCell id="8GBAKr18c9ORs7-P1AzH-5" value="" style="rounded=0;whiteSpace=wrap;html=1;fontFamily=Verdana;" vertex="1" parent="1">
          <mxGeometry x="167" y="40" width="120" height="120" as="geometry" />
        </mxCell>
        <mxCell id="8GBAKr18c9ORs7-P1AzH-6" value="CDN" style="text;html=1;strokeColor=none;fillColor=none;align=center;verticalAlign=middle;whiteSpace=wrap;rounded=0;fontFamily=Verdana;" vertex="1" parent="1">
          <mxGeometry x="189.5" y="10" width="75" height="20" as="geometry" />
        </mxCell>
        <mxCell id="8GBAKr18c9ORs7-P1AzH-7" value="静态数据" style="text;html=1;fillColor=none;align=center;verticalAlign=middle;whiteSpace=wrap;rounded=0;strokeColor=#000000;fontFamily=Verdana;" vertex="1" parent="1">
          <mxGeometry x="189.5" y="60" width="60" height="20" as="geometry" />
        </mxCell>
        <mxCell id="8GBAKr18c9ORs7-P1AzH-8" value="静态数据" style="text;html=1;fillColor=none;align=center;verticalAlign=middle;whiteSpace=wrap;rounded=0;strokeColor=#000000;fontFamily=Verdana;" vertex="1" parent="1">
          <mxGeometry x="189.5" y="120" width="60" height="20" as="geometry" />
        </mxCell>
        <mxCell id="8GBAKr18c9ORs7-P1AzH-9" value="..." style="text;html=1;strokeColor=none;fillColor=none;align=center;verticalAlign=middle;whiteSpace=wrap;rounded=0;fontFamily=Verdana;" vertex="1" parent="1">
          <mxGeometry x="200" y="90" width="40" height="20" as="geometry" />
        </mxCell>
        <mxCell id="8GBAKr18c9ORs7-P1AzH-10" value="静态数据" style="text;html=1;fillColor=none;align=center;verticalAlign=middle;whiteSpace=wrap;rounded=0;strokeColor=#000000;fontFamily=Verdana;" vertex="1" parent="1">
          <mxGeometry x="442" y="60" width="60" height="20" as="geometry" />
        </mxCell>
        <mxCell id="8GBAKr18c9ORs7-P1AzH-11" value="动态数据" style="text;html=1;fillColor=none;align=center;verticalAlign=middle;whiteSpace=wrap;rounded=0;strokeColor=#000000;fontFamily=Verdana;" vertex="1" parent="1">
          <mxGeometry x="442" y="120" width="60" height="20" as="geometry" />
        </mxCell>
        <mxCell id="8GBAKr18c9ORs7-P1AzH-12" value="" style="endArrow=classic;html=1;exitX=0;exitY=0.5;exitDx=0;exitDy=0;fontFamily=Verdana;" edge="1" parent="1" source="8GBAKr18c9ORs7-P1AzH-10" target="8GBAKr18c9ORs7-P1AzH-5">
          <mxGeometry width="50" height="50" relative="1" as="geometry">
            <mxPoint x="317" y="130" as="sourcePoint" />
            <mxPoint x="367" y="80" as="targetPoint" />
          </mxGeometry>
        </mxCell>
        <mxCell id="8GBAKr18c9ORs7-P1AzH-13" value="" style="rounded=0;whiteSpace=wrap;html=1;strokeColor=#000000;fontFamily=Verdana;" vertex="1" parent="1">
          <mxGeometry x="193" y="310" width="320" height="160" as="geometry" />
        </mxCell>
        <mxCell id="8GBAKr18c9ORs7-P1AzH-15" value="" style="rounded=0;whiteSpace=wrap;html=1;strokeColor=#000000;fontFamily=Verdana;" vertex="1" parent="1">
          <mxGeometry x="223" y="340" width="90" height="90" as="geometry" />
        </mxCell>
        <mxCell id="8GBAKr18c9ORs7-P1AzH-16" value="Server1" style="text;html=1;strokeColor=none;fillColor=none;align=center;verticalAlign=middle;whiteSpace=wrap;rounded=0;fontFamily=Verdana;" vertex="1" parent="1">
          <mxGeometry x="248" y="360" width="40" height="20" as="geometry" />
        </mxCell>
        <mxCell id="8GBAKr18c9ORs7-P1AzH-18" value="Local Cache" style="rounded=0;whiteSpace=wrap;html=1;strokeColor=#6c8ebf;fontFamily=Verdana;fillColor=#dae8fc;" vertex="1" parent="1">
          <mxGeometry x="229.25" y="390" width="77.5" height="20" as="geometry" />
        </mxCell>
        <mxCell id="8GBAKr18c9ORs7-P1AzH-19" value="" style="rounded=0;whiteSpace=wrap;html=1;strokeColor=#000000;fontFamily=Verdana;" vertex="1" parent="1">
          <mxGeometry x="399" y="340" width="90" height="90" as="geometry" />
        </mxCell>
        <mxCell id="8GBAKr18c9ORs7-P1AzH-20" value="ServerN" style="text;html=1;strokeColor=none;fillColor=none;align=center;verticalAlign=middle;whiteSpace=wrap;rounded=0;fontFamily=Verdana;" vertex="1" parent="1">
          <mxGeometry x="424" y="350" width="40" height="30" as="geometry" />
        </mxCell>
        <mxCell id="8GBAKr18c9ORs7-P1AzH-21" value="Local Cache" style="rounded=0;whiteSpace=wrap;html=1;strokeColor=#6c8ebf;fontFamily=Verdana;fillColor=#dae8fc;" vertex="1" parent="1">
          <mxGeometry x="405.25" y="390" width="77.5" height="20" as="geometry" />
        </mxCell>
        <mxCell id="8GBAKr18c9ORs7-P1AzH-22" value="...." style="text;html=1;strokeColor=none;fillColor=none;align=center;verticalAlign=middle;whiteSpace=wrap;rounded=0;fontFamily=Verdana;" vertex="1" parent="1">
          <mxGeometry x="333" y="375" width="40" height="20" as="geometry" />
        </mxCell>
        <mxCell id="8GBAKr18c9ORs7-P1AzH-23" value="负载均衡器" style="rounded=0;whiteSpace=wrap;html=1;strokeColor=#000000;fontFamily=Verdana;" vertex="1" parent="1">
          <mxGeometry x="263" y="220" width="170" height="40" as="geometry" />
        </mxCell>
        <mxCell id="8GBAKr18c9ORs7-P1AzH-24" value="" style="endArrow=classic;html=1;fontFamily=Verdana;entryX=0.5;entryY=0;entryDx=0;entryDy=0;" edge="1" parent="1" target="8GBAKr18c9ORs7-P1AzH-23">
          <mxGeometry width="50" height="50" relative="1" as="geometry">
            <mxPoint x="425" y="160" as="sourcePoint" />
            <mxPoint x="250" y="210" as="targetPoint" />
          </mxGeometry>
        </mxCell>
        <mxCell id="8GBAKr18c9ORs7-P1AzH-25" value="" style="endArrow=classic;html=1;fontFamily=Verdana;entryX=0.25;entryY=0;entryDx=0;entryDy=0;exitX=0.25;exitY=1;exitDx=0;exitDy=0;" edge="1" parent="1" source="8GBAKr18c9ORs7-P1AzH-23" target="8GBAKr18c9ORs7-P1AzH-13">
          <mxGeometry width="50" height="50" relative="1" as="geometry">
            <mxPoint x="363" y="140" as="sourcePoint" />
            <mxPoint x="363" y="230" as="targetPoint" />
          </mxGeometry>
        </mxCell>
        <mxCell id="8GBAKr18c9ORs7-P1AzH-26" value="" style="endArrow=classic;html=1;fontFamily=Verdana;entryX=0.75;entryY=0;entryDx=0;entryDy=0;exitX=0.75;exitY=1;exitDx=0;exitDy=0;" edge="1" parent="1" source="8GBAKr18c9ORs7-P1AzH-23" target="8GBAKr18c9ORs7-P1AzH-13">
          <mxGeometry width="50" height="50" relative="1" as="geometry">
            <mxPoint x="333" y="270" as="sourcePoint" />
            <mxPoint x="283" y="320" as="targetPoint" />
          </mxGeometry>
        </mxCell>
        <mxCell id="8GBAKr18c9ORs7-P1AzH-27" value="" style="endArrow=classic;html=1;fontFamily=Verdana;entryX=0.5;entryY=0;entryDx=0;entryDy=0;exitX=0.5;exitY=1;exitDx=0;exitDy=0;" edge="1" parent="1" source="8GBAKr18c9ORs7-P1AzH-23" target="8GBAKr18c9ORs7-P1AzH-13">
          <mxGeometry width="50" height="50" relative="1" as="geometry">
            <mxPoint x="315.5" y="270" as="sourcePoint" />
            <mxPoint x="283" y="320" as="targetPoint" />
          </mxGeometry>
        </mxCell>
        <mxCell id="8GBAKr18c9ORs7-P1AzH-28" value="" style="rounded=0;whiteSpace=wrap;html=1;strokeColor=#000000;fontFamily=Verdana;" vertex="1" parent="1">
          <mxGeometry x="230" y="520" width="240" height="70" as="geometry" />
        </mxCell>
        <mxCell id="8GBAKr18c9ORs7-P1AzH-29" value="秒杀分布式缓存" style="text;html=1;strokeColor=none;fillColor=none;align=center;verticalAlign=middle;whiteSpace=wrap;rounded=0;fontFamily=Verdana;" vertex="1" parent="1">
          <mxGeometry x="243" y="484.82" width="87" height="20" as="geometry" />
        </mxCell>
        <mxCell id="8GBAKr18c9ORs7-P1AzH-30" value="" style="endArrow=classic;html=1;fontFamily=Verdana;exitX=0.5;exitY=1;exitDx=0;exitDy=0;" edge="1" parent="1">
          <mxGeometry width="50" height="50" relative="1" as="geometry">
            <mxPoint x="351.76" y="470.48" as="sourcePoint" />
            <mxPoint x="349.99529411764684" y="520.48" as="targetPoint" />
          </mxGeometry>
        </mxCell>
        <mxCell id="8GBAKr18c9ORs7-P1AzH-32" value="" style="aspect=fixed;html=1;points=[];align=center;image;fontSize=12;image=img/lib/azure2/databases/Cache_Redis.svg;strokeColor=#000000;fontFamily=Verdana;" vertex="1" parent="1">
          <mxGeometry x="327" y="534" width="64" height="52" as="geometry" />
        </mxCell>
        <mxCell id="8GBAKr18c9ORs7-P1AzH-33" value="" style="rounded=0;whiteSpace=wrap;html=1;fontFamily=Verdana;" vertex="1" parent="1">
          <mxGeometry x="688.76" y="40" width="80" height="120" as="geometry" />
        </mxCell>
        <mxCell id="8GBAKr18c9ORs7-P1AzH-34" value="下单成功/失败页面" style="text;html=1;strokeColor=none;fillColor=none;align=center;verticalAlign=middle;whiteSpace=wrap;rounded=0;fontFamily=Verdana;" vertex="1" parent="1">
          <mxGeometry x="677.76" y="10" width="129.24" height="20" as="geometry" />
        </mxCell>
        <mxCell id="8GBAKr18c9ORs7-P1AzH-35" value="" style="rounded=0;whiteSpace=wrap;html=1;fontFamily=Verdana;" vertex="1" parent="1">
          <mxGeometry x="884" y="40" width="80" height="120" as="geometry" />
        </mxCell>
        <mxCell id="8GBAKr18c9ORs7-P1AzH-36" value="支付页面" style="text;html=1;strokeColor=none;fillColor=none;align=center;verticalAlign=middle;whiteSpace=wrap;rounded=0;fontFamily=Verdana;" vertex="1" parent="1">
          <mxGeometry x="869" y="10" width="102" height="20" as="geometry" />
        </mxCell>
        <mxCell id="8GBAKr18c9ORs7-P1AzH-37" value="秒杀服务" style="text;html=1;strokeColor=none;fillColor=none;align=center;verticalAlign=middle;whiteSpace=wrap;rounded=0;fontFamily=Verdana;" vertex="1" parent="1">
          <mxGeometry x="180" y="310" width="87" height="20" as="geometry" />
        </mxCell>
        <mxCell id="8GBAKr18c9ORs7-P1AzH-42" value="" style="rounded=0;whiteSpace=wrap;html=1;strokeColor=#000000;fontFamily=Verdana;" vertex="1" parent="1">
          <mxGeometry x="-250" y="360" width="320" height="120" as="geometry" />
        </mxCell>
        <mxCell id="8GBAKr18c9ORs7-P1AzH-43" value="" style="rounded=0;whiteSpace=wrap;html=1;strokeColor=#000000;fontFamily=Verdana;" vertex="1" parent="1">
          <mxGeometry x="-220" y="390" width="90" height="50" as="geometry" />
        </mxCell>
        <mxCell id="8GBAKr18c9ORs7-P1AzH-44" value="Server1" style="text;html=1;strokeColor=none;fillColor=none;align=center;verticalAlign=middle;whiteSpace=wrap;rounded=0;fontFamily=Verdana;" vertex="1" parent="1">
          <mxGeometry x="-195" y="410" width="40" height="20" as="geometry" />
        </mxCell>
        <mxCell id="8GBAKr18c9ORs7-P1AzH-46" value="" style="rounded=0;whiteSpace=wrap;html=1;strokeColor=#000000;fontFamily=Verdana;" vertex="1" parent="1">
          <mxGeometry x="-44" y="390" width="90" height="50" as="geometry" />
        </mxCell>
        <mxCell id="8GBAKr18c9ORs7-P1AzH-47" value="ServerN" style="text;html=1;strokeColor=none;fillColor=none;align=center;verticalAlign=middle;whiteSpace=wrap;rounded=0;fontFamily=Verdana;" vertex="1" parent="1">
          <mxGeometry x="-19" y="400" width="40" height="30" as="geometry" />
        </mxCell>
        <mxCell id="8GBAKr18c9ORs7-P1AzH-49" value="...." style="text;html=1;strokeColor=none;fillColor=none;align=center;verticalAlign=middle;whiteSpace=wrap;rounded=0;fontFamily=Verdana;" vertex="1" parent="1">
          <mxGeometry x="-110" y="405" width="40" height="20" as="geometry" />
        </mxCell>
        <mxCell id="8GBAKr18c9ORs7-P1AzH-50" value="负载均衡器" style="rounded=0;whiteSpace=wrap;html=1;strokeColor=#000000;fontFamily=Verdana;" vertex="1" parent="1">
          <mxGeometry x="-180" y="270" width="170" height="40" as="geometry" />
        </mxCell>
        <mxCell id="8GBAKr18c9ORs7-P1AzH-51" value="" style="endArrow=classic;html=1;fontFamily=Verdana;entryX=0.25;entryY=0;entryDx=0;entryDy=0;exitX=0.25;exitY=1;exitDx=0;exitDy=0;" edge="1" parent="1" source="8GBAKr18c9ORs7-P1AzH-50" target="8GBAKr18c9ORs7-P1AzH-42">
          <mxGeometry width="50" height="50" relative="1" as="geometry">
            <mxPoint x="-80" y="190" as="sourcePoint" />
            <mxPoint x="-80" y="280" as="targetPoint" />
          </mxGeometry>
        </mxCell>
        <mxCell id="8GBAKr18c9ORs7-P1AzH-52" value="" style="endArrow=classic;html=1;fontFamily=Verdana;entryX=0.75;entryY=0;entryDx=0;entryDy=0;exitX=0.75;exitY=1;exitDx=0;exitDy=0;" edge="1" parent="1" source="8GBAKr18c9ORs7-P1AzH-50" target="8GBAKr18c9ORs7-P1AzH-42">
          <mxGeometry width="50" height="50" relative="1" as="geometry">
            <mxPoint x="-110" y="320" as="sourcePoint" />
            <mxPoint x="-160" y="370" as="targetPoint" />
          </mxGeometry>
        </mxCell>
        <mxCell id="8GBAKr18c9ORs7-P1AzH-53" value="" style="endArrow=classic;html=1;fontFamily=Verdana;entryX=0.5;entryY=0;entryDx=0;entryDy=0;exitX=0.5;exitY=1;exitDx=0;exitDy=0;" edge="1" parent="1" source="8GBAKr18c9ORs7-P1AzH-50" target="8GBAKr18c9ORs7-P1AzH-42">
          <mxGeometry width="50" height="50" relative="1" as="geometry">
            <mxPoint x="-127.5" y="320" as="sourcePoint" />
            <mxPoint x="-160" y="370" as="targetPoint" />
          </mxGeometry>
        </mxCell>
        <mxCell id="8GBAKr18c9ORs7-P1AzH-54" value="秒杀信息入库服务" style="text;html=1;strokeColor=none;fillColor=none;align=center;verticalAlign=middle;whiteSpace=wrap;rounded=0;fontFamily=Verdana;" vertex="1" parent="1">
          <mxGeometry x="-250.25" y="360" width="114" height="20" as="geometry" />
        </mxCell>
        <mxCell id="8GBAKr18c9ORs7-P1AzH-55" value="" style="rounded=0;whiteSpace=wrap;html=1;fontFamily=Verdana;" vertex="1" parent="1">
          <mxGeometry x="-86.5" y="40" width="73" height="120" as="geometry" />
        </mxCell>
        <mxCell id="8GBAKr18c9ORs7-P1AzH-56" value="用户秒杀需求配置页面" style="text;html=1;strokeColor=none;fillColor=none;align=center;verticalAlign=middle;whiteSpace=wrap;rounded=0;fontFamily=Verdana;" vertex="1" parent="1">
          <mxGeometry x="-120" y="20" width="140" height="20" as="geometry" />
        </mxCell>
        <mxCell id="8GBAKr18c9ORs7-P1AzH-57" value="" style="endArrow=classic;html=1;fontFamily=Verdana;exitX=0.5;exitY=1;exitDx=0;exitDy=0;entryX=0.5;entryY=0;entryDx=0;entryDy=0;" edge="1" parent="1" source="8GBAKr18c9ORs7-P1AzH-55" target="8GBAKr18c9ORs7-P1AzH-50">
          <mxGeometry width="50" height="50" relative="1" as="geometry">
            <mxPoint x="-140" y="270" as="sourcePoint" />
            <mxPoint x="-90" y="220" as="targetPoint" />
          </mxGeometry>
        </mxCell>
        <mxCell id="8GBAKr18c9ORs7-P1AzH-58" value="" style="rounded=0;whiteSpace=wrap;html=1;strokeColor=#000000;fontFamily=Verdana;" vertex="1" parent="1">
          <mxGeometry x="-220" y="632.89" width="241" height="240" as="geometry" />
        </mxCell>
        <mxCell id="8GBAKr18c9ORs7-P1AzH-60" value="数据库中间件" style="rounded=0;whiteSpace=wrap;html=1;strokeColor=#000000;fontFamily=Verdana;" vertex="1" parent="1">
          <mxGeometry x="-151" y="530" width="120" height="40" as="geometry" />
        </mxCell>
        <mxCell id="8GBAKr18c9ORs7-P1AzH-61" value="秒杀商品数据库" style="text;html=1;strokeColor=none;fillColor=none;align=center;verticalAlign=middle;whiteSpace=wrap;rounded=0;fontFamily=Verdana;" vertex="1" parent="1">
          <mxGeometry x="-224" y="637.89" width="114" height="20" as="geometry" />
        </mxCell>
        <mxCell id="8GBAKr18c9ORs7-P1AzH-63" value="主" style="shape=cylinder3;whiteSpace=wrap;html=1;boundedLbl=1;backgroundOutline=1;size=15;strokeColor=#000000;fontFamily=Verdana;" vertex="1" parent="1">
          <mxGeometry x="-120" y="656" width="50" height="74" as="geometry" />
        </mxCell>
        <mxCell id="8GBAKr18c9ORs7-P1AzH-64" value="" style="endArrow=classic;html=1;fontFamily=Verdana;exitX=0.5;exitY=1;exitDx=0;exitDy=0;entryX=0.5;entryY=0;entryDx=0;entryDy=0;" edge="1" parent="1" source="8GBAKr18c9ORs7-P1AzH-42" target="8GBAKr18c9ORs7-P1AzH-60">
          <mxGeometry width="50" height="50" relative="1" as="geometry">
            <mxPoint x="-210" y="650" as="sourcePoint" />
            <mxPoint x="-160" y="600" as="targetPoint" />
          </mxGeometry>
        </mxCell>
        <mxCell id="8GBAKr18c9ORs7-P1AzH-65" value="" style="endArrow=classic;html=1;fontFamily=Verdana;exitX=0.5;exitY=1;exitDx=0;exitDy=0;" edge="1" parent="1" source="8GBAKr18c9ORs7-P1AzH-60">
          <mxGeometry width="50" height="50" relative="1" as="geometry">
            <mxPoint x="-70" y="640" as="sourcePoint" />
            <mxPoint x="-91" y="633" as="targetPoint" />
          </mxGeometry>
        </mxCell>
        <mxCell id="8GBAKr18c9ORs7-P1AzH-66" value="从" style="shape=cylinder3;whiteSpace=wrap;html=1;boundedLbl=1;backgroundOutline=1;size=15;strokeColor=#000000;fontFamily=Verdana;" vertex="1" parent="1">
          <mxGeometry x="-170" y="750" width="50" height="74" as="geometry" />
        </mxCell>
        <mxCell id="8GBAKr18c9ORs7-P1AzH-67" value="" style="endArrow=classic;html=1;fontFamily=Verdana;exitX=0;exitY=1;exitDx=0;exitDy=-15;entryX=0.5;entryY=0;entryDx=0;entryDy=0;exitPerimeter=0;entryPerimeter=0;" edge="1" parent="1" source="8GBAKr18c9ORs7-P1AzH-63" target="8GBAKr18c9ORs7-P1AzH-66">
          <mxGeometry width="50" height="50" relative="1" as="geometry">
            <mxPoint x="-79.99999999999977" y="500.0000000000001" as="sourcePoint" />
            <mxPoint x="-81" y="540.0000000000001" as="targetPoint" />
          </mxGeometry>
        </mxCell>
        <mxCell id="8GBAKr18c9ORs7-P1AzH-68" value="从" style="shape=cylinder3;whiteSpace=wrap;html=1;boundedLbl=1;backgroundOutline=1;size=15;strokeColor=#000000;fontFamily=Verdana;" vertex="1" parent="1">
          <mxGeometry x="-69" y="750" width="50" height="74" as="geometry" />
        </mxCell>
        <mxCell id="8GBAKr18c9ORs7-P1AzH-69" value="" style="endArrow=classic;html=1;fontFamily=Verdana;exitX=1;exitY=1;exitDx=0;exitDy=-15;entryX=0.5;entryY=0;entryDx=0;entryDy=0;exitPerimeter=0;entryPerimeter=0;" edge="1" parent="1" source="8GBAKr18c9ORs7-P1AzH-63" target="8GBAKr18c9ORs7-P1AzH-68">
          <mxGeometry width="50" height="50" relative="1" as="geometry">
            <mxPoint x="-110.00000000000023" y="725" as="sourcePoint" />
            <mxPoint x="-135.00000000000023" y="760" as="targetPoint" />
          </mxGeometry>
        </mxCell>
        <mxCell id="8GBAKr18c9ORs7-P1AzH-70" value="" style="endArrow=classic;html=1;fontFamily=Verdana;exitX=1;exitY=0.25;exitDx=0;exitDy=0;entryX=0;entryY=0.5;entryDx=0;entryDy=0;dashed=1;" edge="1" parent="1" source="8GBAKr18c9ORs7-P1AzH-42" target="8GBAKr18c9ORs7-P1AzH-5">
          <mxGeometry width="50" height="50" relative="1" as="geometry">
            <mxPoint x="90" y="430" as="sourcePoint" />
            <mxPoint x="110" y="100" as="targetPoint" />
            <Array as="points">
              <mxPoint x="90" y="390" />
              <mxPoint x="90" y="100" />
            </Array>
          </mxGeometry>
        </mxCell>
        <mxCell id="8GBAKr18c9ORs7-P1AzH-72" value="预热" style="edgeLabel;html=1;align=center;verticalAlign=middle;resizable=0;points=[];fontFamily=Verdana;" vertex="1" connectable="0" parent="8GBAKr18c9ORs7-P1AzH-70">
          <mxGeometry x="0.1796" y="1" relative="1" as="geometry">
            <mxPoint as="offset" />
          </mxGeometry>
        </mxCell>
        <mxCell id="8GBAKr18c9ORs7-P1AzH-73" value="" style="endArrow=classic;html=1;dashed=1;fontFamily=Verdana;exitX=1;exitY=0.25;exitDx=0;exitDy=0;entryX=0;entryY=0.5;entryDx=0;entryDy=0;" edge="1" parent="1" source="8GBAKr18c9ORs7-P1AzH-42" target="8GBAKr18c9ORs7-P1AzH-18">
          <mxGeometry width="50" height="50" relative="1" as="geometry">
            <mxPoint x="100" y="460" as="sourcePoint" />
            <mxPoint x="150" y="410" as="targetPoint" />
          </mxGeometry>
        </mxCell>
        <mxCell id="8GBAKr18c9ORs7-P1AzH-74" value="预热" style="edgeLabel;html=1;align=center;verticalAlign=middle;resizable=0;points=[];fontFamily=Verdana;" vertex="1" connectable="0" parent="8GBAKr18c9ORs7-P1AzH-73">
          <mxGeometry x="0.052" y="2" relative="1" as="geometry">
            <mxPoint as="offset" />
          </mxGeometry>
        </mxCell>
        <mxCell id="8GBAKr18c9ORs7-P1AzH-75" value="" style="endArrow=classic;html=1;dashed=1;fontFamily=Verdana;exitX=1;exitY=0.25;exitDx=0;exitDy=0;entryX=0;entryY=0.25;entryDx=0;entryDy=0;" edge="1" parent="1" source="8GBAKr18c9ORs7-P1AzH-42" target="8GBAKr18c9ORs7-P1AzH-28">
          <mxGeometry width="50" height="50" relative="1" as="geometry">
            <mxPoint x="80.00000000000023" y="410.0000000000001" as="sourcePoint" />
            <mxPoint x="239.25000000000023" y="410.0000000000001" as="targetPoint" />
          </mxGeometry>
        </mxCell>
        <mxCell id="8GBAKr18c9ORs7-P1AzH-76" value="预热" style="edgeLabel;html=1;align=center;verticalAlign=middle;resizable=0;points=[];fontFamily=Verdana;" vertex="1" connectable="0" parent="8GBAKr18c9ORs7-P1AzH-75">
          <mxGeometry x="0.052" y="2" relative="1" as="geometry">
            <mxPoint as="offset" />
          </mxGeometry>
        </mxCell>
        <mxCell id="8GBAKr18c9ORs7-P1AzH-86" value="消息队列" style="rounded=0;whiteSpace=wrap;html=1;strokeColor=#9673a6;fontFamily=Verdana;fillColor=#e1d5e7;" vertex="1" parent="1">
          <mxGeometry x="537.76" y="490.48" width="139" height="40" as="geometry" />
        </mxCell>
        <mxCell id="8GBAKr18c9ORs7-P1AzH-87" value="" style="endArrow=classic;html=1;fontFamily=Verdana;exitX=0.931;exitY=0.994;exitDx=0;exitDy=0;exitPerimeter=0;" edge="1" parent="1">
          <mxGeometry width="50" height="50" relative="1" as="geometry">
            <mxPoint x="465.68000000000006" y="469.52" as="sourcePoint" />
            <mxPoint x="538.76" y="510.48" as="targetPoint" />
            <Array as="points">
              <mxPoint x="464.76" y="510.48" />
            </Array>
          </mxGeometry>
        </mxCell>
        <mxCell id="8GBAKr18c9ORs7-P1AzH-88" value="" style="rounded=0;whiteSpace=wrap;html=1;strokeColor=#000000;fontFamily=Verdana;" vertex="1" parent="1">
          <mxGeometry x="450.76" y="685.3000000000001" width="320" height="105.18" as="geometry" />
        </mxCell>
        <mxCell id="8GBAKr18c9ORs7-P1AzH-89" value="" style="rounded=0;whiteSpace=wrap;html=1;strokeColor=#000000;fontFamily=Verdana;" vertex="1" parent="1">
          <mxGeometry x="480.76" y="715.3000000000001" width="90" height="55.18" as="geometry" />
        </mxCell>
        <mxCell id="8GBAKr18c9ORs7-P1AzH-90" value="Server1" style="text;html=1;strokeColor=none;fillColor=none;align=center;verticalAlign=middle;whiteSpace=wrap;rounded=0;fontFamily=Verdana;" vertex="1" parent="1">
          <mxGeometry x="505.76" y="735.3" width="40" height="20" as="geometry" />
        </mxCell>
        <mxCell id="8GBAKr18c9ORs7-P1AzH-92" value="" style="rounded=0;whiteSpace=wrap;html=1;strokeColor=#000000;fontFamily=Verdana;" vertex="1" parent="1">
          <mxGeometry x="656.76" y="715.3000000000001" width="90" height="45.18" as="geometry" />
        </mxCell>
        <mxCell id="8GBAKr18c9ORs7-P1AzH-93" value="ServerN" style="text;html=1;strokeColor=none;fillColor=none;align=center;verticalAlign=middle;whiteSpace=wrap;rounded=0;fontFamily=Verdana;" vertex="1" parent="1">
          <mxGeometry x="681.76" y="725.3" width="40" height="30" as="geometry" />
        </mxCell>
        <mxCell id="8GBAKr18c9ORs7-P1AzH-95" value="...." style="text;html=1;strokeColor=none;fillColor=none;align=center;verticalAlign=middle;whiteSpace=wrap;rounded=0;fontFamily=Verdana;" vertex="1" parent="1">
          <mxGeometry x="590.76" y="732.89" width="40" height="20" as="geometry" />
        </mxCell>
        <mxCell id="8GBAKr18c9ORs7-P1AzH-96" value="负载均衡器" style="rounded=0;whiteSpace=wrap;html=1;strokeColor=#000000;fontFamily=Verdana;" vertex="1" parent="1">
          <mxGeometry x="520.76" y="595.3" width="170" height="40" as="geometry" />
        </mxCell>
        <mxCell id="8GBAKr18c9ORs7-P1AzH-97" value="" style="endArrow=classic;html=1;fontFamily=Verdana;entryX=0.5;entryY=0;entryDx=0;entryDy=0;exitX=0.5;exitY=1;exitDx=0;exitDy=0;" edge="1" parent="1" target="8GBAKr18c9ORs7-P1AzH-96" source="8GBAKr18c9ORs7-P1AzH-86">
          <mxGeometry width="50" height="50" relative="1" as="geometry">
            <mxPoint x="624.8100000000002" y="535.6600000000001" as="sourcePoint" />
            <mxPoint x="507.76" y="585.3" as="targetPoint" />
          </mxGeometry>
        </mxCell>
        <mxCell id="8GBAKr18c9ORs7-P1AzH-98" value="" style="endArrow=classic;html=1;fontFamily=Verdana;entryX=0.25;entryY=0;entryDx=0;entryDy=0;exitX=0.25;exitY=1;exitDx=0;exitDy=0;" edge="1" parent="1" source="8GBAKr18c9ORs7-P1AzH-96" target="8GBAKr18c9ORs7-P1AzH-88">
          <mxGeometry width="50" height="50" relative="1" as="geometry">
            <mxPoint x="620.76" y="515.3" as="sourcePoint" />
            <mxPoint x="620.76" y="605.3" as="targetPoint" />
          </mxGeometry>
        </mxCell>
        <mxCell id="8GBAKr18c9ORs7-P1AzH-99" value="" style="endArrow=classic;html=1;fontFamily=Verdana;entryX=0.75;entryY=0;entryDx=0;entryDy=0;exitX=0.75;exitY=1;exitDx=0;exitDy=0;" edge="1" parent="1" source="8GBAKr18c9ORs7-P1AzH-96" target="8GBAKr18c9ORs7-P1AzH-88">
          <mxGeometry width="50" height="50" relative="1" as="geometry">
            <mxPoint x="590.76" y="645.3" as="sourcePoint" />
            <mxPoint x="540.76" y="695.3" as="targetPoint" />
          </mxGeometry>
        </mxCell>
        <mxCell id="8GBAKr18c9ORs7-P1AzH-100" value="" style="endArrow=classic;html=1;fontFamily=Verdana;entryX=0.5;entryY=0;entryDx=0;entryDy=0;exitX=0.5;exitY=1;exitDx=0;exitDy=0;" edge="1" parent="1" source="8GBAKr18c9ORs7-P1AzH-96" target="8GBAKr18c9ORs7-P1AzH-88">
          <mxGeometry width="50" height="50" relative="1" as="geometry">
            <mxPoint x="573.26" y="645.3" as="sourcePoint" />
            <mxPoint x="540.76" y="695.3" as="targetPoint" />
          </mxGeometry>
        </mxCell>
        <mxCell id="8GBAKr18c9ORs7-P1AzH-101" value="库存服务" style="text;html=1;strokeColor=none;fillColor=none;align=center;verticalAlign=middle;whiteSpace=wrap;rounded=0;fontFamily=Verdana;" vertex="1" parent="1">
          <mxGeometry x="437.76" y="685.3" width="87" height="20" as="geometry" />
        </mxCell>
        <mxCell id="8GBAKr18c9ORs7-P1AzH-106" value="" style="endArrow=classic;html=1;fontFamily=Verdana;exitX=0;exitY=0.5;exitDx=0;exitDy=0;" edge="1" parent="1" source="8GBAKr18c9ORs7-P1AzH-88">
          <mxGeometry width="50" height="50" relative="1" as="geometry">
            <mxPoint x="490" y="620" as="sourcePoint" />
            <mxPoint x="20" y="738" as="targetPoint" />
          </mxGeometry>
        </mxCell>
        <mxCell id="8GBAKr18c9ORs7-P1AzH-107" value="减库存" style="edgeLabel;html=1;align=center;verticalAlign=middle;resizable=0;points=[];fontFamily=Verdana;" vertex="1" connectable="0" parent="8GBAKr18c9ORs7-P1AzH-106">
          <mxGeometry x="-0.0553" relative="1" as="geometry">
            <mxPoint as="offset" />
          </mxGeometry>
        </mxCell>
        <mxCell id="8GBAKr18c9ORs7-P1AzH-108" value="" style="rounded=0;whiteSpace=wrap;html=1;strokeColor=#000000;fontFamily=Verdana;" vertex="1" parent="1">
          <mxGeometry x="752" y="437.00000000000006" width="320" height="105.18" as="geometry" />
        </mxCell>
        <mxCell id="8GBAKr18c9ORs7-P1AzH-109" value="" style="rounded=0;whiteSpace=wrap;html=1;strokeColor=#000000;fontFamily=Verdana;" vertex="1" parent="1">
          <mxGeometry x="782" y="467.00000000000006" width="90" height="55.18" as="geometry" />
        </mxCell>
        <mxCell id="8GBAKr18c9ORs7-P1AzH-110" value="Server1" style="text;html=1;strokeColor=none;fillColor=none;align=center;verticalAlign=middle;whiteSpace=wrap;rounded=0;fontFamily=Verdana;" vertex="1" parent="1">
          <mxGeometry x="807" y="486.99999999999994" width="40" height="20" as="geometry" />
        </mxCell>
        <mxCell id="8GBAKr18c9ORs7-P1AzH-111" value="" style="rounded=0;whiteSpace=wrap;html=1;strokeColor=#000000;fontFamily=Verdana;" vertex="1" parent="1">
          <mxGeometry x="958" y="467.00000000000006" width="90" height="45.18" as="geometry" />
        </mxCell>
        <mxCell id="8GBAKr18c9ORs7-P1AzH-112" value="ServerN" style="text;html=1;strokeColor=none;fillColor=none;align=center;verticalAlign=middle;whiteSpace=wrap;rounded=0;fontFamily=Verdana;" vertex="1" parent="1">
          <mxGeometry x="983" y="476.99999999999994" width="40" height="30" as="geometry" />
        </mxCell>
        <mxCell id="8GBAKr18c9ORs7-P1AzH-113" value="...." style="text;html=1;strokeColor=none;fillColor=none;align=center;verticalAlign=middle;whiteSpace=wrap;rounded=0;fontFamily=Verdana;" vertex="1" parent="1">
          <mxGeometry x="892" y="484.59" width="40" height="20" as="geometry" />
        </mxCell>
        <mxCell id="8GBAKr18c9ORs7-P1AzH-114" value="负载均衡器" style="rounded=0;whiteSpace=wrap;html=1;strokeColor=#000000;fontFamily=Verdana;" vertex="1" parent="1">
          <mxGeometry x="822" y="347" width="170" height="40" as="geometry" />
        </mxCell>
        <mxCell id="8GBAKr18c9ORs7-P1AzH-115" value="" style="endArrow=classic;html=1;fontFamily=Verdana;entryX=0.5;entryY=0;entryDx=0;entryDy=0;exitX=0.997;exitY=0.099;exitDx=0;exitDy=0;exitPerimeter=0;" edge="1" parent="1" target="8GBAKr18c9ORs7-P1AzH-114" source="8GBAKr18c9ORs7-P1AzH-13">
          <mxGeometry width="50" height="50" relative="1" as="geometry">
            <mxPoint x="868.26" y="255" as="sourcePoint" />
            <mxPoint x="768.76" y="309.82" as="targetPoint" />
            <Array as="points">
              <mxPoint x="907" y="320" />
            </Array>
          </mxGeometry>
        </mxCell>
        <mxCell id="8GBAKr18c9ORs7-P1AzH-116" value="" style="endArrow=classic;html=1;fontFamily=Verdana;entryX=0.25;entryY=0;entryDx=0;entryDy=0;exitX=0.25;exitY=1;exitDx=0;exitDy=0;" edge="1" parent="1" source="8GBAKr18c9ORs7-P1AzH-114" target="8GBAKr18c9ORs7-P1AzH-108">
          <mxGeometry width="50" height="50" relative="1" as="geometry">
            <mxPoint x="922" y="267" as="sourcePoint" />
            <mxPoint x="922" y="357" as="targetPoint" />
          </mxGeometry>
        </mxCell>
        <mxCell id="8GBAKr18c9ORs7-P1AzH-117" value="" style="endArrow=classic;html=1;fontFamily=Verdana;entryX=0.75;entryY=0;entryDx=0;entryDy=0;exitX=0.75;exitY=1;exitDx=0;exitDy=0;" edge="1" parent="1" source="8GBAKr18c9ORs7-P1AzH-114" target="8GBAKr18c9ORs7-P1AzH-108">
          <mxGeometry width="50" height="50" relative="1" as="geometry">
            <mxPoint x="892" y="396.99999999999994" as="sourcePoint" />
            <mxPoint x="842" y="446.99999999999994" as="targetPoint" />
          </mxGeometry>
        </mxCell>
        <mxCell id="8GBAKr18c9ORs7-P1AzH-118" value="" style="endArrow=classic;html=1;fontFamily=Verdana;entryX=0.5;entryY=0;entryDx=0;entryDy=0;exitX=0.5;exitY=1;exitDx=0;exitDy=0;" edge="1" parent="1" source="8GBAKr18c9ORs7-P1AzH-114" target="8GBAKr18c9ORs7-P1AzH-108">
          <mxGeometry width="50" height="50" relative="1" as="geometry">
            <mxPoint x="874.5" y="396.99999999999994" as="sourcePoint" />
            <mxPoint x="842" y="446.99999999999994" as="targetPoint" />
          </mxGeometry>
        </mxCell>
        <mxCell id="8GBAKr18c9ORs7-P1AzH-119" value="订单服务" style="text;html=1;strokeColor=none;fillColor=none;align=center;verticalAlign=middle;whiteSpace=wrap;rounded=0;fontFamily=Verdana;" vertex="1" parent="1">
          <mxGeometry x="739" y="436.99999999999994" width="87" height="20" as="geometry" />
        </mxCell>
        <mxCell id="8GBAKr18c9ORs7-P1AzH-120" value="" style="rounded=0;whiteSpace=wrap;html=1;strokeColor=#000000;fontFamily=Verdana;" vertex="1" parent="1">
          <mxGeometry x="814.76" y="673" width="220" height="240" as="geometry" />
        </mxCell>
        <mxCell id="8GBAKr18c9ORs7-P1AzH-121" value="数据库中间件" style="rounded=0;whiteSpace=wrap;html=1;strokeColor=#000000;fontFamily=Verdana;" vertex="1" parent="1">
          <mxGeometry x="864.76" y="594.89" width="120" height="40" as="geometry" />
        </mxCell>
        <mxCell id="8GBAKr18c9ORs7-P1AzH-122" value="订单数据库" style="text;html=1;strokeColor=none;fillColor=none;align=center;verticalAlign=middle;whiteSpace=wrap;rounded=0;fontFamily=Verdana;" vertex="1" parent="1">
          <mxGeometry x="807" y="687" width="114" height="20" as="geometry" />
        </mxCell>
        <mxCell id="8GBAKr18c9ORs7-P1AzH-123" value="主" style="shape=cylinder3;whiteSpace=wrap;html=1;boundedLbl=1;backgroundOutline=1;size=15;strokeColor=#000000;fontFamily=Verdana;" vertex="1" parent="1">
          <mxGeometry x="894.76" y="720.89" width="50" height="74" as="geometry" />
        </mxCell>
        <mxCell id="8GBAKr18c9ORs7-P1AzH-124" value="" style="endArrow=classic;html=1;fontFamily=Verdana;exitX=0.5;exitY=1;exitDx=0;exitDy=0;" edge="1" parent="1" source="8GBAKr18c9ORs7-P1AzH-121">
          <mxGeometry width="50" height="50" relative="1" as="geometry">
            <mxPoint x="944.76" y="704.89" as="sourcePoint" />
            <mxPoint x="924.76" y="674.89" as="targetPoint" />
          </mxGeometry>
        </mxCell>
        <mxCell id="8GBAKr18c9ORs7-P1AzH-125" value="从" style="shape=cylinder3;whiteSpace=wrap;html=1;boundedLbl=1;backgroundOutline=1;size=15;strokeColor=#000000;fontFamily=Verdana;" vertex="1" parent="1">
          <mxGeometry x="844.76" y="814.89" width="50" height="74" as="geometry" />
        </mxCell>
        <mxCell id="8GBAKr18c9ORs7-P1AzH-126" value="" style="endArrow=classic;html=1;fontFamily=Verdana;exitX=0;exitY=1;exitDx=0;exitDy=-15;entryX=0.5;entryY=0;entryDx=0;entryDy=0;exitPerimeter=0;entryPerimeter=0;" edge="1" parent="1" source="8GBAKr18c9ORs7-P1AzH-123" target="8GBAKr18c9ORs7-P1AzH-125">
          <mxGeometry width="50" height="50" relative="1" as="geometry">
            <mxPoint x="934.7600000000002" y="564.8900000000001" as="sourcePoint" />
            <mxPoint x="933.76" y="604.8900000000001" as="targetPoint" />
          </mxGeometry>
        </mxCell>
        <mxCell id="8GBAKr18c9ORs7-P1AzH-127" value="从" style="shape=cylinder3;whiteSpace=wrap;html=1;boundedLbl=1;backgroundOutline=1;size=15;strokeColor=#000000;fontFamily=Verdana;" vertex="1" parent="1">
          <mxGeometry x="945.76" y="814.89" width="50" height="74" as="geometry" />
        </mxCell>
        <mxCell id="8GBAKr18c9ORs7-P1AzH-128" value="" style="endArrow=classic;html=1;fontFamily=Verdana;exitX=1;exitY=1;exitDx=0;exitDy=-15;entryX=0.5;entryY=0;entryDx=0;entryDy=0;exitPerimeter=0;entryPerimeter=0;" edge="1" parent="1" source="8GBAKr18c9ORs7-P1AzH-123" target="8GBAKr18c9ORs7-P1AzH-127">
          <mxGeometry width="50" height="50" relative="1" as="geometry">
            <mxPoint x="904.7599999999998" y="789.89" as="sourcePoint" />
            <mxPoint x="879.7599999999998" y="824.89" as="targetPoint" />
          </mxGeometry>
        </mxCell>
        <mxCell id="8GBAKr18c9ORs7-P1AzH-129" value="" style="endArrow=classic;html=1;fontFamily=Verdana;exitX=0.527;exitY=1.002;exitDx=0;exitDy=0;exitPerimeter=0;" edge="1" parent="1" source="8GBAKr18c9ORs7-P1AzH-108">
          <mxGeometry width="50" height="50" relative="1" as="geometry">
            <mxPoint x="934.7600000000002" y="644.8899999999999" as="sourcePoint" />
            <mxPoint x="919" y="597" as="targetPoint" />
          </mxGeometry>
        </mxCell>
        <mxCell id="8GBAKr18c9ORs7-P1AzH-131" value="" style="endArrow=classic;html=1;fontFamily=Verdana;entryX=0;entryY=0.5;entryDx=0;entryDy=0;exitX=1;exitY=0.5;exitDx=0;exitDy=0;" edge="1" parent="1" source="8GBAKr18c9ORs7-P1AzH-3" target="8GBAKr18c9ORs7-P1AzH-33">
          <mxGeometry width="50" height="50" relative="1" as="geometry">
            <mxPoint x="737" y="100" as="sourcePoint" />
            <mxPoint x="1134" y="357" as="targetPoint" />
            <Array as="points" />
          </mxGeometry>
        </mxCell>
        <mxCell id="8GBAKr18c9ORs7-P1AzH-132" value="" style="endArrow=classic;html=1;fontFamily=Verdana;entryX=0;entryY=0.5;entryDx=0;entryDy=0;exitX=1;exitY=0.5;exitDx=0;exitDy=0;" edge="1" parent="1" source="8GBAKr18c9ORs7-P1AzH-33" target="8GBAKr18c9ORs7-P1AzH-35">
          <mxGeometry width="50" height="50" relative="1" as="geometry">
            <mxPoint x="747" y="110" as="sourcePoint" />
            <mxPoint x="777" y="110" as="targetPoint" />
            <Array as="points" />
          </mxGeometry>
        </mxCell>
        <mxCell id="8GBAKr18c9ORs7-P1AzH-158" value="成功" style="edgeLabel;html=1;align=center;verticalAlign=middle;resizable=0;points=[];fontFamily=Verdana;" vertex="1" connectable="0" parent="8GBAKr18c9ORs7-P1AzH-132">
          <mxGeometry x="0.0805" y="-1" relative="1" as="geometry">
            <mxPoint x="-1" as="offset" />
          </mxGeometry>
        </mxCell>
        <mxCell id="8GBAKr18c9ORs7-P1AzH-135" value="" style="rounded=0;whiteSpace=wrap;html=1;strokeColor=#000000;fontFamily=Verdana;" vertex="1" parent="1">
          <mxGeometry x="1118.24" y="440.00000000000006" width="320" height="105.18" as="geometry" />
        </mxCell>
        <mxCell id="8GBAKr18c9ORs7-P1AzH-136" value="" style="rounded=0;whiteSpace=wrap;html=1;strokeColor=#000000;fontFamily=Verdana;" vertex="1" parent="1">
          <mxGeometry x="1148.24" y="470.00000000000006" width="90" height="55.18" as="geometry" />
        </mxCell>
        <mxCell id="8GBAKr18c9ORs7-P1AzH-137" value="Server1" style="text;html=1;strokeColor=none;fillColor=none;align=center;verticalAlign=middle;whiteSpace=wrap;rounded=0;fontFamily=Verdana;" vertex="1" parent="1">
          <mxGeometry x="1173.24" y="489.99999999999994" width="40" height="20" as="geometry" />
        </mxCell>
        <mxCell id="8GBAKr18c9ORs7-P1AzH-138" value="" style="rounded=0;whiteSpace=wrap;html=1;strokeColor=#000000;fontFamily=Verdana;" vertex="1" parent="1">
          <mxGeometry x="1324.24" y="470.00000000000006" width="90" height="45.18" as="geometry" />
        </mxCell>
        <mxCell id="8GBAKr18c9ORs7-P1AzH-139" value="ServerN" style="text;html=1;strokeColor=none;fillColor=none;align=center;verticalAlign=middle;whiteSpace=wrap;rounded=0;fontFamily=Verdana;" vertex="1" parent="1">
          <mxGeometry x="1349.24" y="479.99999999999994" width="40" height="30" as="geometry" />
        </mxCell>
        <mxCell id="8GBAKr18c9ORs7-P1AzH-140" value="...." style="text;html=1;strokeColor=none;fillColor=none;align=center;verticalAlign=middle;whiteSpace=wrap;rounded=0;fontFamily=Verdana;" vertex="1" parent="1">
          <mxGeometry x="1258.24" y="487.59" width="40" height="20" as="geometry" />
        </mxCell>
        <mxCell id="8GBAKr18c9ORs7-P1AzH-141" value="负载均衡器" style="rounded=0;whiteSpace=wrap;html=1;strokeColor=#000000;fontFamily=Verdana;" vertex="1" parent="1">
          <mxGeometry x="1188.24" y="350" width="170" height="40" as="geometry" />
        </mxCell>
        <mxCell id="8GBAKr18c9ORs7-P1AzH-142" value="" style="endArrow=classic;html=1;fontFamily=Verdana;entryX=0.25;entryY=0;entryDx=0;entryDy=0;exitX=0.25;exitY=1;exitDx=0;exitDy=0;" edge="1" parent="1" source="8GBAKr18c9ORs7-P1AzH-141" target="8GBAKr18c9ORs7-P1AzH-135">
          <mxGeometry width="50" height="50" relative="1" as="geometry">
            <mxPoint x="1288.24" y="270" as="sourcePoint" />
            <mxPoint x="1288.24" y="360" as="targetPoint" />
          </mxGeometry>
        </mxCell>
        <mxCell id="8GBAKr18c9ORs7-P1AzH-143" value="" style="endArrow=classic;html=1;fontFamily=Verdana;entryX=0.75;entryY=0;entryDx=0;entryDy=0;exitX=0.75;exitY=1;exitDx=0;exitDy=0;" edge="1" parent="1" source="8GBAKr18c9ORs7-P1AzH-141" target="8GBAKr18c9ORs7-P1AzH-135">
          <mxGeometry width="50" height="50" relative="1" as="geometry">
            <mxPoint x="1258.24" y="399.99999999999994" as="sourcePoint" />
            <mxPoint x="1208.24" y="449.99999999999994" as="targetPoint" />
          </mxGeometry>
        </mxCell>
        <mxCell id="8GBAKr18c9ORs7-P1AzH-144" value="" style="endArrow=classic;html=1;fontFamily=Verdana;entryX=0.5;entryY=0;entryDx=0;entryDy=0;exitX=0.5;exitY=1;exitDx=0;exitDy=0;" edge="1" parent="1" source="8GBAKr18c9ORs7-P1AzH-141" target="8GBAKr18c9ORs7-P1AzH-135">
          <mxGeometry width="50" height="50" relative="1" as="geometry">
            <mxPoint x="1240.74" y="399.99999999999994" as="sourcePoint" />
            <mxPoint x="1208.24" y="449.99999999999994" as="targetPoint" />
          </mxGeometry>
        </mxCell>
        <mxCell id="8GBAKr18c9ORs7-P1AzH-145" value="支付服务" style="text;html=1;strokeColor=none;fillColor=none;align=center;verticalAlign=middle;whiteSpace=wrap;rounded=0;fontFamily=Verdana;" vertex="1" parent="1">
          <mxGeometry x="1105.24" y="439.99999999999994" width="87" height="20" as="geometry" />
        </mxCell>
        <mxCell id="8GBAKr18c9ORs7-P1AzH-146" value="" style="rounded=0;whiteSpace=wrap;html=1;strokeColor=#000000;fontFamily=Verdana;" vertex="1" parent="1">
          <mxGeometry x="1181" y="676" width="220" height="240" as="geometry" />
        </mxCell>
        <mxCell id="8GBAKr18c9ORs7-P1AzH-147" value="数据库中间件" style="rounded=0;whiteSpace=wrap;html=1;strokeColor=#000000;fontFamily=Verdana;" vertex="1" parent="1">
          <mxGeometry x="1231" y="597.89" width="120" height="40" as="geometry" />
        </mxCell>
        <mxCell id="8GBAKr18c9ORs7-P1AzH-148" value="对账数据库" style="text;html=1;strokeColor=none;fillColor=none;align=center;verticalAlign=middle;whiteSpace=wrap;rounded=0;fontFamily=Verdana;" vertex="1" parent="1">
          <mxGeometry x="1173.24" y="690" width="114" height="20" as="geometry" />
        </mxCell>
        <mxCell id="8GBAKr18c9ORs7-P1AzH-149" value="主" style="shape=cylinder3;whiteSpace=wrap;html=1;boundedLbl=1;backgroundOutline=1;size=15;strokeColor=#000000;fontFamily=Verdana;" vertex="1" parent="1">
          <mxGeometry x="1261" y="723.89" width="50" height="74" as="geometry" />
        </mxCell>
        <mxCell id="8GBAKr18c9ORs7-P1AzH-150" value="" style="endArrow=classic;html=1;fontFamily=Verdana;exitX=0.5;exitY=1;exitDx=0;exitDy=0;" edge="1" parent="1" source="8GBAKr18c9ORs7-P1AzH-147">
          <mxGeometry width="50" height="50" relative="1" as="geometry">
            <mxPoint x="1311" y="707.89" as="sourcePoint" />
            <mxPoint x="1291.0000000000002" y="677.8899999999999" as="targetPoint" />
          </mxGeometry>
        </mxCell>
        <mxCell id="8GBAKr18c9ORs7-P1AzH-151" value="从" style="shape=cylinder3;whiteSpace=wrap;html=1;boundedLbl=1;backgroundOutline=1;size=15;strokeColor=#000000;fontFamily=Verdana;" vertex="1" parent="1">
          <mxGeometry x="1211" y="817.89" width="50" height="74" as="geometry" />
        </mxCell>
        <mxCell id="8GBAKr18c9ORs7-P1AzH-152" value="" style="endArrow=classic;html=1;fontFamily=Verdana;exitX=0;exitY=1;exitDx=0;exitDy=-15;entryX=0.5;entryY=0;entryDx=0;entryDy=0;exitPerimeter=0;entryPerimeter=0;" edge="1" parent="1" source="8GBAKr18c9ORs7-P1AzH-149" target="8GBAKr18c9ORs7-P1AzH-151">
          <mxGeometry width="50" height="50" relative="1" as="geometry">
            <mxPoint x="1301.0000000000002" y="567.8900000000001" as="sourcePoint" />
            <mxPoint x="1300" y="607.8900000000001" as="targetPoint" />
          </mxGeometry>
        </mxCell>
        <mxCell id="8GBAKr18c9ORs7-P1AzH-153" value="从" style="shape=cylinder3;whiteSpace=wrap;html=1;boundedLbl=1;backgroundOutline=1;size=15;strokeColor=#000000;fontFamily=Verdana;" vertex="1" parent="1">
          <mxGeometry x="1312" y="817.89" width="50" height="74" as="geometry" />
        </mxCell>
        <mxCell id="8GBAKr18c9ORs7-P1AzH-154" value="" style="endArrow=classic;html=1;fontFamily=Verdana;exitX=1;exitY=1;exitDx=0;exitDy=-15;entryX=0.5;entryY=0;entryDx=0;entryDy=0;exitPerimeter=0;entryPerimeter=0;" edge="1" parent="1" source="8GBAKr18c9ORs7-P1AzH-149" target="8GBAKr18c9ORs7-P1AzH-153">
          <mxGeometry width="50" height="50" relative="1" as="geometry">
            <mxPoint x="1270.9999999999998" y="792.89" as="sourcePoint" />
            <mxPoint x="1245.9999999999998" y="827.89" as="targetPoint" />
          </mxGeometry>
        </mxCell>
        <mxCell id="8GBAKr18c9ORs7-P1AzH-155" value="" style="endArrow=classic;html=1;fontFamily=Verdana;exitX=0.527;exitY=1.002;exitDx=0;exitDy=0;exitPerimeter=0;" edge="1" parent="1" source="8GBAKr18c9ORs7-P1AzH-135">
          <mxGeometry width="50" height="50" relative="1" as="geometry">
            <mxPoint x="1301.0000000000002" y="647.8899999999999" as="sourcePoint" />
            <mxPoint x="1285.24" y="600" as="targetPoint" />
          </mxGeometry>
        </mxCell>
        <mxCell id="8GBAKr18c9ORs7-P1AzH-156" value="" style="endArrow=classic;html=1;fontFamily=Verdana;entryX=0.414;entryY=-0.102;entryDx=0;entryDy=0;entryPerimeter=0;exitX=0.5;exitY=1;exitDx=0;exitDy=0;" edge="1" parent="1" source="8GBAKr18c9ORs7-P1AzH-35" target="8GBAKr18c9ORs7-P1AzH-141">
          <mxGeometry width="50" height="50" relative="1" as="geometry">
            <mxPoint x="435" y="170" as="sourcePoint" />
            <mxPoint x="358" y="230" as="targetPoint" />
          </mxGeometry>
        </mxCell>
        <mxCell id="8GBAKr18c9ORs7-P1AzH-162" value="&lt;font style=&quot;font-size: 48px&quot;&gt;秒杀系统设计&amp;nbsp;&lt;/font&gt;" style="text;html=1;strokeColor=none;fillColor=none;align=center;verticalAlign=middle;whiteSpace=wrap;rounded=0;dashed=1;fontFamily=Verdana;" vertex="1" parent="1">
          <mxGeometry x="-521" y="80" width="370" height="20" as="geometry" />
        </mxCell>
      </root>
    </mxGraphModel>
  </diagram>
</mxfile>
